<svg width="60" height="49" viewBox="0 0 60 49" fill="none" xmlns="http://www.w3.org/2000/svg">
<path fill-rule="evenodd" clip-rule="evenodd" d="M0.220173 16.3816L4.8554 44.3777C5.49265 46.9267 6.76717 48.2012 9.95347 48.2012H53.287C54.5615 48.2012 56.4733 47.564 57.1106 44.3777C57.194 43.9606 57.3907 41.6262 57.6632 38.3927C58.2072 31.9381 59.0531 21.901 59.9023 16.3816C60.4617 12.7452 58.6278 9.55888 54.167 11.2402L43.0909 18.2501L34.8065 1.68106C33.532 -0.230488 30.3458 -0.867803 28.4339 1.68136C26.325 4.4933 23.2871 9.68827 20.9075 13.7575C19.8357 15.5902 18.8974 17.1947 18.2378 18.2501L6.12993 11.2402C2.3064 9.32846 -0.879919 11.8775 0.220173 16.3816ZM3.82362 14.657L8.28443 44.6081H52.9601L56.0788 14.657L40.7846 23.5786L31.2257 3.82357L19.1178 23.5786L3.82362 14.657Z" fill="#FF5A5A"/>
</svg>
